<svg width="48" height="48" viewBox="0 0 48 48" fill="none" xmlns="http://www.w3.org/2000/svg">
<rect width="48" height="48" rx="8" fill="#F9F4E7"/>
<path d="M29.0215 8.00066H26.7255C26.605 7.99476 26.4859 8.02868 26.3867 8.09718C26.2874 8.16568 26.2134 8.26495 26.1762 8.37967L25.5829 10.2582C25.5418 10.3816 25.5457 10.5155 25.594 10.6361C25.6422 10.7568 25.7318 10.8565 25.8466 10.9174L27.9559 12.016C28.0292 12.0552 28.1104 12.0773 28.1935 12.0806C28.2765 12.0839 28.3592 12.0683 28.4354 12.035C28.5116 12.0017 28.5792 11.9515 28.6331 11.8883C28.6871 11.825 28.726 11.7504 28.7469 11.6699L29.5324 8.67079C29.5501 8.59243 29.5505 8.51112 29.5334 8.43261C29.5163 8.3541 29.4822 8.28029 29.4335 8.21638C29.3848 8.15248 29.3226 8.10004 29.2515 8.06277C29.1803 8.0255 29.1018 8.00429 29.0215 8.00066Z" fill="#034EA1"/>
<path d="M25.5826 9.73634L25.0333 8.34114C24.9907 8.2373 24.9173 8.149 24.8231 8.08811C24.7288 8.02722 24.6181 7.99667 24.506 8.00058H22.122C22.0338 8.00061 21.947 8.02188 21.8687 8.06259C21.7905 8.10329 21.7232 8.16223 21.6726 8.23442C21.6219 8.30661 21.5894 8.38994 21.5778 8.47735C21.5661 8.56477 21.5757 8.6537 21.6057 8.73663L22.2319 10.4724C21.743 10.8404 21.0674 11.6534 20.216 13.3836C19.7592 14.3027 19.5648 15.3298 19.6539 16.3522C19.7431 17.3746 20.1124 18.3526 20.7213 19.1787C20.7598 19.2336 20.8106 19.2788 20.8696 19.3105C23.2316 20.6947 23.1712 20.7606 23.4403 20.7606C23.8962 20.7606 23.6106 20.7606 29.7682 13.9934C29.823 13.9332 29.8638 13.8615 29.8875 13.7836C29.9113 13.7057 29.9174 13.6235 29.9055 13.5429C29.4825 10.747 26.5768 9.92859 25.5826 9.73634Z" fill="#034EA1"/>
<path d="M34.3675 17.6958C34.3135 17.5775 34.2192 17.4823 34.1015 17.4269C33.9839 17.3716 33.8504 17.3598 33.7248 17.3937L30.3412 18.3055C30.2532 18.3283 30.1722 18.3726 30.1056 18.4344C30.0389 18.4962 29.9886 18.5736 29.9592 18.6596C29.9298 18.7456 29.9222 18.8376 29.9371 18.9273C29.952 19.0169 29.9889 19.1015 30.0446 19.1734L31.7419 21.3706C31.8262 21.482 31.9499 21.5571 32.0876 21.5806C32.2254 21.6041 32.3669 21.5742 32.4834 21.4969C32.6592 21.3761 34.2192 20.3159 34.5597 20.0028C34.9003 19.6898 34.9113 18.8603 34.3675 17.6958Z" fill="#003876"/>
<path d="M31.3546 18.8216C30.1187 17.7231 28.2566 17.2836 27.8886 17.399C25.5212 18.1515 25.9276 21.1891 26.2407 23.628C26.2501 23.7019 26.2744 23.7731 26.3122 23.8373C26.35 23.9015 26.4004 23.9574 26.4605 24.0015C26.823 24.2706 26.8285 24.0015 32.4038 23.183C32.5338 23.162 32.6519 23.0949 32.7366 22.9941C32.8212 22.8933 32.8669 22.7654 32.8652 22.6337C32.8652 22.5239 32.7938 20.1125 31.3546 18.8216Z" fill="#034EA1"/>
<path d="M32.6209 13.164C32.3463 13.0926 26.2986 13.7847 24.9308 14.4054C23.4258 15.0975 22.5194 18.4372 22.3546 19.0964C22.3224 19.2169 22.3321 19.3447 22.3821 19.4589C23.228 21.321 24.788 22.3812 27.15 22.6998C27.2322 22.711 27.3159 22.7034 27.3948 22.6776C27.4737 22.6518 27.5457 22.6084 27.6054 22.5508C27.6652 22.4932 27.7111 22.4228 27.7397 22.3449C27.7683 22.267 27.7789 22.1836 27.7707 22.101C27.657 20.8623 27.8455 19.6145 28.32 18.4647C28.8692 17.3167 31.2477 16.8882 32.165 16.8168C32.5486 16.7177 32.8952 16.5091 33.1624 16.2165C33.4296 15.9239 33.606 15.56 33.6701 15.169C33.7369 14.9686 33.7627 14.7567 33.7458 14.5462C33.7289 14.3356 33.6697 14.1306 33.5717 13.9434C33.4738 13.7563 33.3391 13.5908 33.1757 13.4569C33.0124 13.3229 32.8237 13.2233 32.6209 13.164Z" fill="#003876"/>
<path d="M22.0513 20.2169L20.8484 14.691C20.7055 11.8457 20.8484 11.7578 20.6122 11.5051C19.9201 10.7032 18.1678 10.4505 16.5859 11.6424C16.2178 11.9171 16.4156 12.3181 16.3661 13.3727C14.0042 14.7954 13.724 14.724 13.6197 15.1524C13.5539 15.5636 13.5539 15.9826 13.6197 16.3938C13.746 17.2562 14.4876 17.6682 14.8885 17.5528L16.6682 17.0585C16.5913 17.9318 16.4375 19.003 16.3606 19.5028C16.3385 19.6463 16.374 19.7926 16.4594 19.91C16.5449 20.0273 16.6732 20.106 16.8166 20.129C20.2277 20.6783 21.4361 20.8815 21.502 20.8815C21.585 20.8834 21.6673 20.8664 21.7427 20.8319C21.8182 20.7974 21.8848 20.7463 21.9377 20.6823C21.9906 20.6184 22.0282 20.5433 22.0479 20.4626C22.0676 20.382 22.0688 20.298 22.0513 20.2169Z" fill="#003876"/>
<path d="M17.3996 31.7905C17.3224 31.7627 17.24 31.7526 17.1584 31.7608C17.0767 31.7691 16.998 31.7955 16.9279 31.8382C16.8579 31.8809 16.7982 31.9387 16.7534 32.0075C16.7086 32.0762 16.6798 32.1541 16.6691 32.2354C15.9989 37.2395 15.9715 37.0582 16.0264 37.256C16.148 37.6535 16.3727 38.0118 16.6775 38.2944C16.9824 38.5771 17.3566 38.7741 17.7622 38.8654C18.4268 39.0137 19.7396 39.14 19.9264 38.4809C20.8107 35.3884 20.8107 35.5092 20.7998 35.3499C20.7119 33.2351 18.9377 32.3398 17.3996 31.7905Z" fill="#003876"/>
<path d="M16.6457 19.0416L13.7729 18.6022C13.6621 18.59 13.5501 18.6119 13.452 18.6648C13.3539 18.7178 13.2742 18.7994 13.2236 18.8988L12.6743 19.9644C12.6256 20.0626 12.6075 20.1732 12.6221 20.2819C12.6368 20.3905 12.6837 20.4923 12.7567 20.5741C13.0314 20.8872 13.9926 21.9034 14.7561 22.0627H14.833C16.0305 22.1341 16.6732 20.8982 17.0796 19.7612C17.1054 19.6854 17.1144 19.6049 17.1058 19.5253C17.0972 19.4457 17.0714 19.369 17.03 19.3004C16.9887 19.2319 16.9329 19.1732 16.8665 19.1285C16.8001 19.0838 16.7248 19.0541 16.6457 19.0416Z" fill="#003876"/>
<path d="M16.2514 21.0245C16.2344 20.9449 16.2 20.8702 16.1506 20.8056C16.1012 20.741 16.0381 20.6882 15.9658 20.6509C15.5538 20.4422 15.5099 20.7059 12.1207 22.1395C12.0124 22.1883 11.9228 22.2708 11.8654 22.3748C11.8079 22.4788 11.7857 22.5986 11.8021 22.7163L11.9944 24.0071C12.0149 24.1481 12.0894 24.2756 12.2021 24.3627C12.3148 24.4498 12.457 24.4897 12.5986 24.474C13.5165 24.386 14.4203 24.1868 15.2901 23.8808C15.9273 23.5073 16.6139 22.7108 16.2514 21.0245Z" fill="#003876"/>
<path d="M33.8938 23.1117C33.871 23.0718 33.8434 23.0349 33.8114 23.0018C33.1569 22.3665 32.3316 21.9352 31.4363 21.7606C30.541 21.5861 29.6142 21.6757 28.7689 22.0186C27.2327 21.6617 25.77 21.041 24.446 20.184C22.3587 18.8437 19.2771 17.2782 16.5966 19.1348C14.0369 20.9035 13.6304 27.3742 14.8718 29.8186C16.0253 32.1256 19.5133 36.2288 22.7816 37.6185C24.7426 38.4479 29.8235 40.1727 31.79 39.986C33.7565 39.7992 36.0855 36.1409 36.1844 31.7795C36.2613 27.3522 33.9927 23.282 33.8938 23.1117Z" fill="#034EA1"/>
<path d="M17.7061 26.5337C19.7385 25.6768 23.0837 23.5731 23.4408 20.2114C23.4603 20.0156 23.4915 19.8212 23.5341 19.6291C21.5182 18.4756 18.9091 17.5308 16.5966 19.1348C14.0369 20.9035 13.6304 27.3742 14.8718 29.8185C14.9707 30.0218 15.097 30.2415 15.2343 30.4667L15.3607 29.5713C15.4789 28.9138 15.7537 28.2945 16.162 27.7658C16.5703 27.237 17.0999 26.8144 17.7061 26.5337Z" fill="#034EA1"/>
<path d="M27.2894 19.7795C27.2014 19.5653 26.9815 19.4797 26.8055 19.5739C26.6221 19.6767 26.5415 19.9337 26.6295 20.1479C27.2161 21.5785 27.4948 23.6088 26.7028 26.3673C26.0868 28.5261 24.8109 31.1218 22.5156 34.2058C22.3836 34.3857 22.4056 34.6599 22.5596 34.8141C22.7063 34.9683 22.9409 34.9426 23.0729 34.7712C25.4268 31.593 26.7468 28.8945 27.3994 26.6329C28.2574 23.6259 27.9421 21.3729 27.2894 19.7795Z" fill="white"/>
</svg>
