<svg width="295" height="103" viewBox="0 0 295 103" fill="none" xmlns="http://www.w3.org/2000/svg">
<path d="M28.8984 38.9844L31.2941 55.3164C31.3632 55.7909 31.7133 56.3945 32.4965 56.4221C33.2198 56.4498 33.7635 55.9706 33.9569 55.4086L38.1402 43.1123L39.5637 45.0933C39.8356 45.4757 40.2778 45.7015 40.7432 45.7015L45.0508 45.7245C45.7603 45.7245 46.3177 45.0749 46.4052 44.4898C46.4928 43.9047 46.1012 42.9879 45.3548 42.9695L41.7475 42.8912C41.5218 42.8866 41.3144 42.7668 41.1947 42.5779L38.799 38.7955C38.6055 38.4914 37.9375 38.1597 37.4399 38.2657C36.9423 38.3716 36.6152 38.8646 36.477 39.2562C35.4865 42.0849 34.7125 44.7893 33.6114 47.6549C33.5008 47.9451 33.077 47.899 33.0309 47.5904L30.7504 31.9816C30.6537 31.3274 29.958 30.8437 29.4374 30.816C28.7694 30.7746 28.152 31.2906 27.9355 32.0047L23.9734 45.1072L22.0938 41.205C21.9187 40.841 21.5547 40.2928 21.0203 40.15C20.4122 39.9841 20.1496 40.3388 19.8133 40.5738L17.7815 42.9649C17.3807 43.4394 16.7864 43.7112 16.1645 43.7112L0.514246 43.6928L0.587959 23.6336C0.615602 16.3452 6.62782 10.5588 13.8056 10.1211L40.757 10.1718C53.4587 10.1948 64.9717 19.8558 68.2612 32.0692C71.956 45.7844 67.4734 61.1858 55.2554 69.0869C51.4408 71.5517 46.9811 73.5005 42.4109 73.542L22.4209 73.7263C21.0894 73.7401 18.9287 74.6891 18.0119 75.9238L15.7544 78.9691C14.4967 80.6691 13.2943 82.3 11.9398 83.9355L5.38852 91.8551C4.74353 92.6337 3.40288 93.0299 2.55057 92.8272C1.83187 92.6567 0.518853 91.9472 0.518853 90.8415L0.491211 46.3188L17.5281 46.2958C18.2515 46.2958 18.7536 46.1714 19.4309 45.4527L20.4951 44.2825L22.9184 49.4424C23.1211 49.8755 23.6371 50.456 24.0748 50.456C25.0976 50.456 25.4062 49.7741 25.5767 49.2535L28.903 38.9705L28.8984 38.9844Z" fill="url(#paint0_linear_977_20219)"/>
<path d="M2.13965 42.9733H-0.000101805V47.2528H2.13965V45.113V42.9733ZM17.7361 45.113V47.2528C18.3711 47.2528 18.9734 46.9707 19.3799 46.4828L17.7361 45.113ZM20.5891 41.6894L22.503 40.7325C22.18 40.0866 21.5531 39.6472 20.8358 39.5639C20.1185 39.4807 19.4076 39.7648 18.9453 40.3196L20.5891 41.6894ZM24.0127 48.5366L22.0989 49.4935C22.4872 50.2701 23.3063 50.7351 24.1721 50.6704C25.038 50.6057 25.7789 50.0242 26.0475 49.1985L24.0127 48.5366ZM29.1481 32.75L31.2612 32.4134C31.1057 31.4369 30.3012 30.6941 29.3154 30.6168C28.3296 30.5395 27.4192 31.1477 27.1133 32.0881L29.1481 32.75ZM32.5717 54.2426L30.4586 54.5792C30.613 55.5482 31.4065 56.288 32.3839 56.3741C33.3613 56.4602 34.272 55.8705 34.5934 54.9435L32.5717 54.2426ZM37.5169 39.9776L39.3092 38.8087C38.8631 38.1248 38.0667 37.7543 37.2563 37.8538C36.4458 37.9532 35.7626 38.5053 35.4952 39.2767L37.5169 39.9776ZM40.3699 44.3522L38.5776 45.5211C38.9726 46.1267 39.6468 46.492 40.3699 46.492V44.3522ZM45.3151 46.492C46.4969 46.492 47.4549 45.534 47.4549 44.3522C47.4549 43.1704 46.4969 42.2125 45.3151 42.2125V44.3522V46.492ZM2.13965 45.113V47.2528H17.7361V45.113V42.9733H2.13965V45.113ZM17.7361 45.113L19.3799 46.4828L22.2329 43.0592L20.5891 41.6894L18.9453 40.3196L16.0923 43.7432L17.7361 45.113ZM20.5891 41.6894L18.6753 42.6463L22.0989 49.4935L24.0127 48.5366L25.9266 47.5797L22.503 40.7325L20.5891 41.6894ZM24.0127 48.5366L26.0475 49.1985L31.1829 33.4119L29.1481 32.75L27.1133 32.0881L21.9779 47.8747L24.0127 48.5366ZM29.1481 32.75L27.035 33.0866L30.4586 54.5792L32.5717 54.2426L34.6848 53.906L31.2612 32.4134L29.1481 32.75ZM32.5717 54.2426L34.5934 54.9435L39.5386 40.6785L37.5169 39.9776L35.4952 39.2767L30.55 53.5417L32.5717 54.2426ZM37.5169 39.9776L35.7246 41.1465L38.5776 45.5211L40.3699 44.3522L42.1622 43.1833L39.3092 38.8087L37.5169 39.9776ZM40.3699 44.3522V46.492H45.3151V44.3522V42.2125H40.3699V44.3522Z" fill="white"/>
<path d="M94.9227 11.4256H112.73C116.25 11.4256 119.088 12.4224 121.243 14.4159C123.398 16.3915 124.475 19.1753 124.475 22.7672C124.475 25.8563 123.515 28.5503 121.593 30.8491C119.671 33.13 116.717 34.2705 112.73 34.2705H100.284V51H94.9227V11.4256ZM119.061 22.7942C119.061 19.8847 117.983 17.9091 115.828 16.8675C114.643 16.3107 113.017 16.0323 110.952 16.0323H100.284V29.7446H110.952C113.358 29.7446 115.307 29.2328 116.798 28.2091C118.306 27.1853 119.061 25.3804 119.061 22.7942ZM135.484 22.1476V41.3017C135.484 42.7744 135.718 43.9777 136.185 44.9116C137.047 46.6358 138.654 47.4978 141.007 47.4978C144.383 47.4978 146.682 45.9892 147.904 42.972C148.568 41.3556 148.9 39.1376 148.9 36.3179V22.1476H153.749V51H149.17L149.224 46.7435C148.595 47.8391 147.814 48.764 146.88 49.5183C145.03 51.0269 142.785 51.7813 140.145 51.7813C136.032 51.7813 133.23 50.4073 131.74 47.6595C130.932 46.1868 130.527 44.2202 130.527 41.7597V22.1476H135.484ZM161.552 11.4256H166.402V51H161.552V11.4256ZM176.656 41.9483C176.8 43.5647 177.204 44.8039 177.868 45.6659C179.09 47.2284 181.209 48.0097 184.226 48.0097C186.022 48.0097 187.603 47.6236 188.967 46.8513C190.332 46.0611 191.015 44.8488 191.015 43.2144C191.015 41.9752 190.467 41.0323 189.372 40.3858C188.671 39.9907 187.288 39.5327 185.223 39.0119L181.371 38.042C178.91 37.4314 177.096 36.7489 175.929 35.9946C173.845 34.6835 172.804 32.8696 172.804 30.5528C172.804 27.8229 173.783 25.6139 175.74 23.9256C177.716 22.2374 180.365 21.3933 183.687 21.3933C188.034 21.3933 191.168 22.6685 193.089 25.2187C194.293 26.8351 194.876 28.5772 194.84 30.445H190.261C190.171 29.3495 189.785 28.3527 189.102 27.4547C187.989 26.1796 186.058 25.542 183.31 25.542C181.478 25.542 180.086 25.8922 179.135 26.5927C178.201 27.2931 177.734 28.218 177.734 29.3675C177.734 30.6246 178.353 31.6304 179.592 32.3847C180.311 32.8337 181.371 33.2288 182.771 33.57L185.977 34.3513C189.461 35.1954 191.796 36.0126 192.982 36.8028C194.867 38.042 195.81 39.9907 195.81 42.6487C195.81 45.217 194.831 47.435 192.874 49.3028C190.934 51.1706 187.971 52.1045 183.984 52.1045C179.691 52.1045 176.647 51.1347 174.851 49.195C173.073 47.2374 172.121 44.8218 171.996 41.9483H176.656ZM213.446 21.5011C215.494 21.5011 217.478 21.986 219.4 22.9558C221.322 23.9077 222.785 25.1469 223.791 26.6735C224.761 28.1282 225.407 29.8254 225.731 31.7651C226.018 33.0941 226.162 35.2134 226.162 38.1228H205.014C205.104 41.0503 205.795 43.403 207.088 45.181C208.381 46.9411 210.384 47.8211 213.096 47.8211C215.628 47.8211 217.649 46.986 219.157 45.3157C220.019 44.3459 220.63 43.2234 220.989 41.9483H225.758C225.632 43.0079 225.21 44.1932 224.491 45.5043C223.791 46.7974 223.001 47.857 222.121 48.6832C220.648 50.12 218.825 51.0898 216.652 51.5927C215.485 51.88 214.165 52.0237 212.692 52.0237C209.1 52.0237 206.056 50.7216 203.559 48.1175C201.063 45.4953 199.815 41.8315 199.815 37.1261C199.815 32.4925 201.072 28.7299 203.586 25.8384C206.101 22.9468 209.387 21.5011 213.446 21.5011ZM221.178 34.2705C220.98 32.1692 220.522 30.4899 219.804 29.2328C218.475 26.898 216.257 25.7306 213.15 25.7306C210.923 25.7306 209.055 26.5388 207.546 28.1552C206.038 29.7536 205.239 31.792 205.149 34.2705H221.178ZM265.582 34.7823L259.575 17.2985L253.19 34.7823H265.582ZM256.773 11.4256H262.834L277.193 51H271.32L267.306 39.1466H251.655L247.371 51H241.875L256.773 11.4256ZM283.353 11.4256H288.768V51H283.353V11.4256Z" fill="black"/>
<path d="M97.4651 70.1818H100.412L98.509 79.1561C99.3509 78.2918 100.277 77.6351 101.287 77.1862C102.309 76.7259 103.358 76.4958 104.436 76.4958C106.681 76.4958 108.336 77.2703 109.403 78.8194C110.48 80.3572 110.699 82.6302 110.059 85.6385C109.453 88.4896 108.258 90.858 106.473 92.7438C104.688 94.6296 102.572 95.5725 100.125 95.5725C98.756 95.5725 97.6728 95.2413 96.8758 94.5791C96.3931 94.1862 95.9273 93.5576 95.4783 92.6933L94.99 95H92.1951L97.4651 70.1818ZM106.928 85.79C107.332 83.893 107.259 82.3215 106.709 81.0756C106.159 79.8296 105.092 79.2066 103.51 79.2066C102.129 79.2066 100.81 79.7174 99.5529 80.7388C98.2958 81.7603 97.4202 83.444 96.9263 85.79C96.5671 87.485 96.4886 88.86 96.6906 89.9151C97.061 91.9019 98.335 92.8953 100.513 92.8953C102.152 92.8953 103.515 92.2443 104.604 90.9422C105.693 89.6401 106.467 87.9227 106.928 85.79ZM128.887 79.7959C129.303 80.7051 129.482 81.7659 129.426 82.9782C129.437 83.8088 129.247 85.1334 128.854 86.9518H115.637C115.3 88.7814 115.418 90.2519 115.99 91.3631C116.574 92.4632 117.713 93.0132 119.408 93.0132C120.991 93.0132 122.36 92.4912 123.516 91.4473C124.19 90.8412 124.723 90.1396 125.116 89.3427H128.096C127.872 90.0049 127.451 90.7458 126.833 91.5652C126.227 92.3734 125.593 93.0356 124.931 93.552C123.819 94.45 122.551 95.0561 121.125 95.3704C120.351 95.55 119.503 95.6398 118.583 95.6398C116.338 95.6398 114.609 94.826 113.397 93.1984C112.185 91.5596 111.893 89.2697 112.522 86.3288C113.139 83.4328 114.424 81.0812 116.377 79.274C118.33 77.4668 120.575 76.5632 123.112 76.5632C124.392 76.5632 125.571 76.8662 126.648 77.4724C127.726 78.0673 128.472 78.8418 128.887 79.7959ZM126.244 84.544C126.401 83.2307 126.339 82.1812 126.059 81.3955C125.542 79.9362 124.313 79.2066 122.371 79.2066C120.98 79.2066 119.706 79.7117 118.549 80.722C117.393 81.721 116.619 82.995 116.226 84.544H126.244ZM136.468 71.9329H139.533L138.455 76.9673H141.334L140.812 79.4423H137.933L135.424 91.2116C135.29 91.8402 135.413 92.2611 135.795 92.4744C136.008 92.5979 136.39 92.6596 136.94 92.6596C137.086 92.6596 137.243 92.6596 137.411 92.6596C137.579 92.6484 137.782 92.6316 138.017 92.6091L137.512 95C137.142 95.101 136.76 95.174 136.367 95.2189C135.986 95.2638 135.576 95.2862 135.138 95.2862C133.724 95.2862 132.837 94.927 132.478 94.2086C132.13 93.479 132.079 92.5361 132.326 91.38L134.869 79.4423H132.427L132.949 76.9673H135.391L136.468 71.9329ZM146.591 93.03C147.658 93.03 148.747 92.7831 149.858 92.2892C151.71 91.4698 152.838 90.1284 153.242 88.2651L153.747 85.8237C153.332 86.0594 152.816 86.2558 152.198 86.413C151.581 86.5701 150.986 86.6824 150.413 86.7497L148.528 86.9855C147.394 87.1314 146.518 87.3615 145.901 87.6758C144.857 88.2033 144.212 89.0452 143.965 90.2014C143.774 91.0769 143.942 91.7672 144.47 92.2724C145.009 92.7775 145.716 93.03 146.591 93.03ZM152.602 84.0726C153.321 83.9828 153.854 83.691 154.202 83.1971C154.393 82.9277 154.539 82.5404 154.64 82.0353C154.864 81.0026 154.656 80.2562 154.017 79.7959C153.377 79.3245 152.372 79.0888 151.003 79.0888C149.42 79.0888 148.208 79.5153 147.366 80.3684C146.894 80.8398 146.507 81.5414 146.204 82.4731H143.375C143.903 80.2505 144.953 78.7071 146.524 77.8428C148.096 76.9673 149.796 76.5295 151.626 76.5295C153.747 76.5295 155.38 76.9336 156.525 77.7418C157.67 78.55 158.063 79.8072 157.704 81.5133L155.498 91.9019C155.431 92.2162 155.437 92.4688 155.515 92.6596C155.605 92.8504 155.858 92.9459 156.273 92.9459C156.408 92.9459 156.559 92.9402 156.727 92.929C156.907 92.9066 157.098 92.8785 157.3 92.8448L156.812 95.0842C156.318 95.2189 155.942 95.3031 155.684 95.3367C155.437 95.3704 155.1 95.3873 154.673 95.3873C153.629 95.3873 152.95 95.0168 152.636 94.276C152.468 93.8831 152.412 93.3275 152.468 92.6091C151.671 93.4173 150.632 94.1188 149.353 94.7138C148.073 95.3087 146.737 95.6061 145.345 95.6061C143.673 95.6061 142.41 95.101 141.557 94.0908C140.715 93.0693 140.457 91.7953 140.783 90.2687C141.142 88.5962 141.939 87.2997 143.173 86.3793C144.419 85.4589 145.912 84.892 147.652 84.6787L152.602 84.0726Z" fill="#919191"/>
<defs>
<linearGradient id="paint0_linear_977_20219" x1="4.63711" y1="10.1211" x2="42.4151" y2="86.5984" gradientUnits="userSpaceOnUse">
<stop stop-color="#1CCCF4"/>
<stop offset="1" stop-color="#AA3BBB"/>
</linearGradient>
</defs>
</svg>
