<svg width="48" height="48" viewBox="0 0 48 48" fill="none" xmlns="http://www.w3.org/2000/svg">
<rect width="48" height="48" rx="8" fill="#F9F4E7"/>
<circle cx="23.9922" cy="24" r="14" fill="#034EA1"/>
<ellipse cx="27.4557" cy="28.5128" rx="2.5573" ry="2.19197" fill="#034EA1"/>
<path d="M20.1539 31.7816C20.4497 31.7816 20.7524 31.7801 21.0618 31.7801H26.9181C27.2271 31.7801 27.5298 31.7816 27.8255 31.7816C30.5353 31.7816 32.6058 31.6606 32.6058 29.1876C32.6058 26.5991 30.3383 24.4742 27.4424 24.2432C27.4194 25.1487 23.9909 27.3835 23.9909 27.3835C23.9909 27.3835 20.5616 25.1489 20.5384 24.2434C17.6429 24.4742 15.375 26.5991 15.375 29.1876C15.375 31.6606 17.4447 31.7816 20.1539 31.7816ZM26.5488 28.4045C26.5488 28.3308 26.6249 28.2714 26.7196 28.2714H27.6458V27.4632C27.6458 27.3813 27.7134 27.3141 27.7978 27.3141H28.7119C28.7959 27.3141 28.8639 27.3807 28.8639 27.4632V28.2716H29.7897C29.8835 28.2716 29.9602 28.331 29.9602 28.4047V29.2023C29.9602 29.276 29.8841 29.3354 29.7897 29.3354H28.8637V30.1436C28.8637 30.2259 28.7954 30.2925 28.7112 30.2925H27.7976C27.7132 30.2925 27.6452 30.2261 27.6452 30.1436V29.3352H26.7194C26.6252 29.3352 26.5486 29.2758 26.5486 29.2021L26.5488 28.4045Z" fill="white"/>
<path d="M23.6915 24.5745C26.0714 24.5745 28.0006 20.9959 28.0006 18.6161C28.0006 16.2367 26.0714 14.3076 23.6915 14.3076C21.3119 14.3076 19.3828 16.2367 19.3828 18.6161C19.3828 20.9959 21.3119 24.5745 23.6915 24.5745Z" fill="white"/>
</svg>
